<?xml version="1.0" standalone="no"?>
<!DOCTYPE svg PUBLIC "-//W3C//DTD SVG 20010904//EN"
 "http://www.w3.org/TR/2001/REC-SVG-20010904/DTD/svg10.dtd">
<svg version="1.0" xmlns="http://www.w3.org/2000/svg"
 width="664.000000pt" height="664.000000pt" viewBox="0 0 664.000000 664.000000"
 preserveAspectRatio="xMidYMid meet">
<metadata>
Created by potrace 1.11, written by Peter Selinger 2001-2013
</metadata>
<g transform="translate(0.000000,664.000000) scale(0.100000,-0.100000)"
fill="#000000" stroke="none">
<path d="M740 3350 l0 -3290 633 0 634 0 0 205 c0 144 -3 205 -11 206 -6 1
-191 2 -411 3 l-400 1 -2 2873 c-1 2214 1 2872 10 2873 7 1 190 3 407 4 217 1
398 3 401 4 3 0 6 93 7 206 l0 205 -634 0 -634 0 0 -3290z"/>
<path d="M2358 6624 c-15 -8 -35 -27 -46 -42 -17 -25 -19 -35 -14 -84 3 -28
51 -65 106 -82 106 -34 138 -71 101 -119 -24 -33 -116 -33 -199 -1 -15 6 -17
1 -14 -26 3 -37 6 -38 108 -44 110 -6 177 33 187 109 6 43 -19 81 -66 101 -20
9 -43 19 -51 24 -9 4 -29 10 -45 14 -99 23 -92 116 8 116 23 0 57 -4 76 -10
40 -11 51 -7 44 19 -7 26 -25 32 -103 36 -44 3 -74 -1 -92 -11z"/>
<path d="M4634 6433 l1 -208 410 0 410 0 0 -2875 0 -2875 -400 -1 c-220 -1
-405 -2 -411 -3 -8 -1 -12 -61 -12 -206 l1 -205 633 0 634 0 0 3290 0 3290
-634 0 -634 0 2 -207z"/>
<path d="M2962 6603 c-28 -68 -35 -89 -37 -98 -2 -5 -23 -59 -48 -120 -63
-156 -62 -152 -32 -152 21 0 28 7 42 48 12 33 24 49 35 50 10 0 34 1 53 1 127
0 119 3 140 -51 15 -39 23 -48 42 -48 13 0 25 3 28 7 4 6 -31 96 -86 225 -4
11 -21 52 -37 90 -26 63 -32 70 -59 73 -25 3 -32 -2 -41 -25z m58 -89 c0 -6
11 -37 25 -69 14 -32 23 -60 20 -63 -6 -6 -125 -5 -131 1 -2 2 10 43 28 91 29
75 34 84 45 69 7 -9 13 -22 13 -29z"/>
<path d="M3448 6623 c-4 -7 -3 -348 1 -380 0 -7 13 -11 29 -10 27 2 27 3 28
78 0 41 3 80 7 86 7 11 57 6 57 -6 0 -3 10 -18 23 -33 13 -15 32 -39 43 -53
51 -71 53 -73 88 -72 21 1 32 5 29 12 -7 11 -74 97 -83 105 -3 3 -13 17 -22
32 -17 26 -17 27 22 66 33 33 40 46 40 78 0 43 -27 85 -56 92 -39 8 -203 12
-206 5z m171 -53 c45 -24 32 -92 -21 -114 -18 -8 -46 -13 -62 -12 -30 1 -30 1
-30 66 -1 46 3 67 13 71 19 8 77 2 100 -11z"/>
<path d="M4044 6622 c-8 -5 -11 -66 -10 -197 l1 -190 30 0 30 0 1 65 c1 36 2
70 3 75 0 6 22 10 49 10 120 -1 202 83 166 170 -24 59 -44 68 -157 71 -56 2
-107 0 -113 -4z m136 -42 c45 -1 68 -19 75 -59 5 -27 1 -37 -24 -60 -23 -22
-40 -28 -83 -30 l-53 -2 -1 78 c0 78 0 78 25 77 14 -2 42 -3 61 -4z"/>
<path d="M4490 5853 c-74 -46 -155 -96 -180 -112 -116 -73 -396 -247 -405
-251 -17 -8 -356 -219 -403 -251 -23 -16 -44 -29 -46 -29 -2 0 -57 -34 -123
-75 -65 -41 -136 -85 -158 -96 -22 -12 -42 -24 -45 -28 -3 -3 -14 -11 -25 -18
-11 -7 -42 -26 -70 -42 -27 -17 -93 -57 -145 -90 -52 -33 -131 -81 -175 -108
-44 -26 -84 -51 -90 -56 -5 -4 -116 -73 -245 -152 -129 -80 -242 -149 -250
-155 -8 -6 -39 -25 -68 -43 l-53 -33 310 -195 c171 -107 318 -198 328 -204 10
-5 79 -48 153 -95 74 -47 142 -89 151 -95 15 -9 52 -32 144 -88 11 -7 45 -29
77 -50 31 -20 62 -37 67 -37 6 0 11 -4 11 -9 0 -5 14 -14 30 -21 17 -7 30 -17
30 -23 0 -6 3 -7 7 -4 3 4 13 1 22 -6 14 -12 330 -212 383 -242 42 -24 193
-119 198 -124 3 -3 19 -13 35 -22 17 -9 111 -67 210 -129 242 -151 276 -173
375 -235 46 -30 85 -53 87 -52 2 3 5 499 4 602 -1 49 -2 51 -49 78 -57 33 -75
44 -127 78 -22 14 -45 28 -50 30 -14 5 -309 182 -315 189 -3 3 -25 16 -50 29
-25 13 -52 29 -60 36 -17 13 -219 136 -310 187 -14 8 -117 71 -230 139 -113
69 -212 128 -220 132 -8 4 -44 25 -79 47 -34 22 -67 40 -72 40 -5 0 -9 4 -9
10 0 5 -11 12 -25 16 -14 3 -25 9 -25 13 0 4 64 46 143 93 583 353 830 502
882 533 33 19 78 46 100 60 22 13 56 34 75 45 19 11 51 30 71 42 64 40 218
132 247 148 15 8 29 18 30 23 2 4 9 7 15 7 7 0 22 8 35 18 22 17 22 17 23 335
1 175 -1 320 -3 321 -1 2 -64 -34 -138 -81z"/>
<path d="M2009 4008 c-2 -48 0 -630 2 -632 2 -2 112 -68 244 -147 132 -79 242
-147 243 -151 2 -5 7 -8 12 -8 5 0 70 -37 144 -82 75 -46 145 -88 155 -93 10
-6 26 -17 35 -24 9 -7 16 -10 16 -6 0 5 8 1 18 -7 9 -8 53 -36 97 -63 44 -26
103 -63 132 -81 28 -19 54 -34 57 -34 3 0 37 -20 76 -45 39 -25 72 -45 74 -45
3 0 239 -142 294 -177 l24 -14 -44 -28 c-24 -15 -218 -133 -433 -261 -214
-129 -391 -238 -393 -242 -2 -5 -7 -8 -11 -8 -12 0 -215 -122 -219 -132 -2 -4
-8 -8 -13 -8 -5 0 -75 -39 -154 -87 -80 -49 -193 -117 -252 -153 l-108 -65 0
-323 c0 -177 4 -322 8 -322 4 0 45 23 90 51 45 29 100 63 122 77 22 14 52 33
67 44 15 10 32 18 38 18 5 0 10 5 10 10 0 6 4 10 9 10 5 0 95 54 201 120 105
66 195 120 201 120 5 0 9 4 9 9 0 5 14 14 30 21 17 7 30 16 30 21 0 5 6 9 14
9 8 0 21 6 28 14 8 7 30 21 48 31 19 10 37 21 40 25 3 4 30 22 60 39 80 46 94
55 100 62 3 3 20 14 39 24 19 9 39 21 45 26 22 19 478 299 486 299 5 0 10 4
12 8 2 4 55 39 118 77 63 38 117 72 120 75 5 5 58 39 102 65 86 50 164 100
166 107 2 4 7 8 12 8 4 0 59 32 121 71 63 39 126 79 142 88 15 9 57 35 93 57
l66 42 -86 53 c-47 30 -98 61 -113 69 -16 8 -29 18 -31 23 -2 4 -10 7 -17 7
-7 0 -15 3 -17 8 -1 4 -37 27 -78 52 -41 24 -77 47 -80 50 -3 4 -12 10 -20 13
-8 4 -28 16 -45 27 -16 11 -43 26 -58 35 -29 17 -145 89 -162 102 -6 5 -23 15
-38 23 -15 8 -117 71 -227 140 -110 69 -212 132 -227 140 -15 8 -33 20 -40 27
-7 6 -22 15 -33 18 -11 3 -20 11 -20 16 0 5 -4 9 -10 9 -5 0 -58 31 -118 68
-60 38 -115 72 -123 75 -8 4 -41 25 -74 47 -33 22 -69 44 -80 50 -11 6 -32 18
-47 28 -14 9 -73 46 -130 81 -56 35 -125 78 -153 96 -104 67 -435 270 -455
280 -11 5 -20 13 -20 17 0 5 -5 8 -11 8 -6 0 -31 14 -56 30 -50 34 -53 35 -54
18z"/>
<path d="M2310 443 c0 -19 6 -22 53 -25 l52 -3 0 -150 0 -150 -50 0 c-44 -1
-50 -3 -53 -23 -2 -13 2 -22 10 -23 49 -3 250 1 257 5 5 4 7 14 5 24 -4 13
-15 17 -47 16 -23 0 -46 1 -52 3 -6 2 -9 58 -8 146 1 173 -1 159 21 156 52 -5
90 2 88 16 -4 27 -17 29 -147 30 -127 1 -129 0 -129 -22z"/>
<path d="M2949 455 c-71 -31 -88 -118 -31 -165 17 -14 61 -36 99 -49 71 -26
90 -38 93 -62 5 -30 -1 -40 -31 -58 -36 -22 -98 -20 -161 4 l-38 15 0 -29 c0
-20 6 -31 18 -35 83 -23 159 -23 204 0 33 16 62 42 66 57 1 4 2 8 3 10 6 20 6
43 -2 70 -9 33 -43 54 -151 93 -26 9 -55 25 -64 35 -21 23 -12 62 18 76 26 12
103 8 143 -7 34 -13 32 -14 31 13 -1 31 -18 38 -94 43 -46 3 -78 -1 -103 -11z"/>
<path d="M3455 460 c-1 -3 1 -14 5 -25 5 -16 15 -19 56 -16 l49 2 0 -153 0
-153 -43 -1 c-60 -2 -75 -10 -63 -31 8 -16 22 -18 103 -16 51 1 109 2 129 2
28 1 38 6 42 20 6 24 -5 28 -60 25 -31 -2 -42 2 -45 14 -3 15 -3 207 1 268 1
18 8 21 48 23 46 1 65 13 57 35 -4 11 -273 17 -279 6z"/>
<path d="M4036 463 c-3 -3 -6 -93 -6 -199 0 -180 1 -192 19 -197 38 -10 45 7
45 108 l1 96 58 -63 c134 -144 126 -138 165 -138 l35 0 -24 27 c-33 37 -56 61
-116 125 l-51 55 32 41 c18 23 43 52 54 64 44 47 72 79 72 82 0 1 -14 2 -31 1
-24 -1 -42 -14 -77 -55 -26 -30 -64 -72 -85 -94 l-37 -41 1 65 c2 120 1 125
-25 128 -13 1 -26 -1 -30 -5z"/>
<path d="M2976 43 c-3 -4 -6 -15 -6 -25 0 -14 8 -18 40 -18 35 0 40 3 40 23 0
18 -6 22 -34 24 -19 1 -37 -1 -40 -4z"/>
</g>
</svg>
